<svg xmlns="http://www.w3.org/2000/svg" viewBox="0 0 760 520" role="img" aria-labelledby="title desc">
  <title id="title">South Asia archive map</title>
  <desc id="desc">A stylized archival map marking Afghanistan, Pakistan, India, and regional South Asia files.</desc>
  <rect width="760" height="520" fill="#efe7d8"/>
  <path d="M43 72h674v376H43z" fill="#f8f3e9" stroke="#cfc2ad" stroke-width="3"/>
  <path d="M92 117h573M92 181h573M92 245h573M92 309h573M92 373h573" stroke="#ded2be" stroke-width="1"/>
  <path d="M143 95v330M249 95v330M355 95v330M461 95v330M567 95v330" stroke="#ded2be" stroke-width="1"/>
  <path d="M252 175l39-39 66 11 42 35-13 52-53 22-63-12-34-32z" fill="#d9c28c" stroke="#7b6642" stroke-width="3"/>
  <path d="M315 238l61-31 62 24 23 74-39 75-78 2-44-55z" fill="#9ab19a" stroke="#446047" stroke-width="3"/>
  <path d="M424 210l96 12 63 65-11 79-66 56-88-32-32-86z" fill="#c98f77" stroke="#744638" stroke-width="3"/>
  <path d="M536 402l21 42 32-18-26-42z" fill="#c98f77" stroke="#744638" stroke-width="3"/>
  <circle cx="290" cy="188" r="8" fill="#143d4a"/>
  <circle cx="368" cy="291" r="8" fill="#143d4a"/>
  <circle cx="493" cy="306" r="8" fill="#143d4a"/>
  <path d="M607 119h74v112h-74z" fill="#fffaf1" stroke="#cfc2ad" stroke-width="2"/>
  <path d="M621 143h45M621 166h45M621 189h34" stroke="#9b3d32" stroke-width="5" stroke-linecap="round"/>
  <g font-family="Georgia, 'Times New Roman', serif" fill="#17202a" font-weight="700">
    <text x="210" y="133" font-size="28">Afghanistan</text>
    <text x="288" y="420" font-size="28">Pakistan</text>
    <text x="497" y="271" font-size="28">India</text>
    <text x="87" y="456" font-size="22">Regional source files</text>
  </g>
  <g font-family="Inter, Arial, sans-serif" fill="#5c6670" font-size="16" font-weight="700">
    <text x="87" y="491">Richard N. Haass files / National Security Council records</text>
  </g>
</svg>
